<svg width="40" height="40" viewBox="0 0 40 40" fill="none" xmlns="http://www.w3.org/2000/svg">
<rect width="40" height="40" rx="20" fill="#EFBC22"/>
<path d="M20.3084 11.7917L27.8084 14.7917C28.1001 14.9083 28.3334 15.2583 28.3334 15.5667V18.3333C28.3334 18.7917 27.9584 19.1667 27.5001 19.1667H12.5001C12.0417 19.1667 11.6667 18.7917 11.6667 18.3333V15.5667C11.6667 15.2583 11.9001 14.9083 12.1918 14.7917L19.6918 11.7917C19.8584 11.725 20.1417 11.725 20.3084 11.7917Z" stroke="#292D32" stroke-width="1.5" stroke-miterlimit="10" stroke-linecap="round" stroke-linejoin="round"/>
<path d="M28.3334 28.3333H11.6667V25.8333C11.6667 25.375 12.0417 25 12.5001 25H27.5001C27.9584 25 28.3334 25.375 28.3334 25.8333V28.3333Z" stroke="#292D32" stroke-width="1.5" stroke-miterlimit="10" stroke-linecap="round" stroke-linejoin="round"/>
<path d="M13.3333 25V19.1667" stroke="#292D32" stroke-width="1.5" stroke-miterlimit="10" stroke-linecap="round" stroke-linejoin="round"/>
<path d="M16.6667 25V19.1667" stroke="#292D32" stroke-width="1.5" stroke-miterlimit="10" stroke-linecap="round" stroke-linejoin="round"/>
<path d="M20 25V19.1667" stroke="#292D32" stroke-width="1.5" stroke-miterlimit="10" stroke-linecap="round" stroke-linejoin="round"/>
<path d="M23.3333 25V19.1667" stroke="#292D32" stroke-width="1.5" stroke-miterlimit="10" stroke-linecap="round" stroke-linejoin="round"/>
<path d="M26.6667 25V19.1667" stroke="#292D32" stroke-width="1.5" stroke-miterlimit="10" stroke-linecap="round" stroke-linejoin="round"/>
<path d="M10.8333 28.3333H29.1666" stroke="#292D32" stroke-width="1.5" stroke-miterlimit="10" stroke-linecap="round" stroke-linejoin="round"/>
<path d="M20 17.0833C20.6904 17.0833 21.25 16.5237 21.25 15.8333C21.25 15.143 20.6904 14.5833 20 14.5833C19.3096 14.5833 18.75 15.143 18.75 15.8333C18.75 16.5237 19.3096 17.0833 20 17.0833Z" stroke="#292D32" stroke-width="1.5" stroke-miterlimit="10" stroke-linecap="round" stroke-linejoin="round"/>
</svg>
