<svg width="141" height="94" viewBox="0 0 141 94" fill="none" xmlns="http://www.w3.org/2000/svg">
<path d="M34.6289 40.1002C29.2775 32.8575 23.9273 25.6137 18.5784 18.369C18.5322 18.2718 18.5032 18.1672 18.4929 18.06C19.361 18.34 20.1813 17.8917 21.0306 17.8916C33.1916 17.8909 45.3525 17.8882 57.5134 17.8835C58.2134 17.8829 59.0194 17.9944 59.1133 18.6857C59.3201 20.2081 60.321 19.5124 61.328 19.7458C60.577 18.9586 60.0563 18.3641 59.4826 17.827C59.021 17.3949 58.7263 17.0142 59.3901 16.53C63.1422 20.2015 66.4906 24.2685 69.3774 28.6608C69.3931 28.9519 69.4339 29.2256 69.802 29.2676L69.818 29.2498C69.5305 29.8797 68.9248 30.2824 68.7134 30.9889C67.4607 35.1764 65.3466 38.9591 63.1868 42.7176C55.0677 42.7175 46.9486 42.7203 38.8295 42.7261C37.9669 42.7569 37.1051 42.6439 36.2791 42.3917C36.1486 42.1928 36.0181 41.9938 35.8876 41.7947C35.7894 41.6684 35.6911 41.5422 35.5928 41.4159L35.5802 41.3935C35.615 40.7007 35.4391 40.1645 34.6289 40.1002Z" fill="#3365D8"/>
<path d="M135.63 1.67882C136.813 1.73408 137.999 1.75202 139.177 1.85636C140.125 1.94029 140.384 2.30578 139.752 3.22079C132.849 13.2209 125.342 22.7767 118.313 32.6839C116.06 35.8591 113.689 38.9494 111.371 42.078C110.798 42.8507 110.151 43.3368 109.071 43.273C107.294 43.1678 105.506 43.2324 103.723 43.2501C102.856 43.2587 102.434 43.1229 102.746 42.036C104.896 34.5431 106.981 27.0315 109.087 19.526C109.897 19.9957 109.062 20.6778 109.301 21.2477C109.439 21.5757 109.312 22.0596 109.854 22.0611C109.95 22.0672 110.046 22.0527 110.136 22.0184C110.226 21.9842 110.307 21.9311 110.375 21.8626C110.443 21.7941 110.496 21.7118 110.53 21.6213C110.564 21.5307 110.578 21.4339 110.572 21.3374C110.514 20.022 110.385 18.7112 109.64 17.5619C109.729 17.3374 109.818 17.1129 109.907 16.8884C110.402 16.8268 110.945 17.5075 111.383 16.8569C111.79 16.2519 111.617 15.6061 111.286 15.0147C111.129 14.7349 110.905 14.4943 110.721 14.2287C109.711 12.7645 110.651 10.5529 112.389 10.3845C113.589 10.2682 113.95 9.55219 113.858 8.49522C113.75 7.25345 114.205 6.65099 115.507 6.77654C116.87 6.90792 117.597 6.25736 117.422 4.87207C117.256 3.55631 118.008 3.10943 119.053 2.93315C119.849 2.7629 120.675 2.80742 121.447 3.06222C121.958 3.25259 122.518 3.26369 123.036 3.09369C123.406 2.97389 123.777 2.69981 123.767 2.30863C123.754 1.75274 123.233 1.92894 122.89 1.88598C121.839 1.75462 120.743 2.16301 119.728 1.61217C120.886 1.58257 122.044 1.553 123.202 1.52344C124.798 1.52273 126.357 1.60461 127.907 2.16452C128.802 2.48799 129.814 2.36746 130.811 2.66888C132.035 3.03885 133.496 2.61869 134.87 2.78464C135.353 2.84291 135.52 2.15877 135.63 1.67882ZM112.652 13.0536C112.6 13.0595 112.55 13.0757 112.504 13.1013C112.458 13.127 112.418 13.1615 112.386 13.2029C112.353 13.2442 112.329 13.2917 112.315 13.3424C112.301 13.3931 112.298 13.4462 112.304 13.4984C112.301 13.767 112.492 13.9028 112.707 13.8134C112.795 13.7698 112.873 13.7076 112.936 13.6312C112.999 13.5547 113.045 13.4656 113.071 13.37C113.123 13.09 112.869 13.0613 112.652 13.0536ZM120.363 13.4165C120.237 13.3119 120.126 13.1523 120.038 13.1642C119.975 13.1859 119.919 13.2229 119.874 13.272C119.829 13.3211 119.797 13.3807 119.781 13.4454C119.753 13.6563 119.855 13.8652 120.112 13.7982C120.21 13.7728 120.263 13.5766 120.363 13.4165ZM121.699 12.2738C121.806 12.0841 121.926 11.9673 121.929 11.8471C121.936 11.6247 121.798 11.4478 121.56 11.5394C121.471 11.5736 121.402 11.7939 121.415 11.9193C121.427 12.0272 121.569 12.1208 121.699 12.2738ZM126.886 6.19538C126.758 6.35744 126.619 6.45519 126.611 6.56317C126.601 6.68983 126.677 6.91227 126.764 6.94045C127.006 7.01852 127.135 6.83425 127.123 6.6126C127.116 6.49371 126.997 6.38107 126.886 6.19538ZM113.544 20.2917C113.421 20.1799 113.319 20.0168 113.225 20.0216C113.161 20.0409 113.104 20.076 113.058 20.1237C113.012 20.1714 112.979 20.23 112.961 20.2941C112.933 20.4986 113.009 20.7263 113.282 20.6572C113.382 20.6318 113.441 20.4426 113.544 20.2917ZM115.169 18.6584C115.045 18.5465 114.943 18.3835 114.849 18.3883C114.786 18.4076 114.728 18.4427 114.682 18.4904C114.636 18.538 114.603 18.5966 114.586 18.6608C114.557 18.8653 114.633 19.0929 114.906 19.0239C115.006 18.9985 115.066 18.8093 115.169 18.6584ZM128.396 4.94937C128.357 5.03957 128.268 5.14981 128.293 5.2143C128.319 5.27937 128.458 5.29903 128.548 5.33858C128.587 5.24867 128.677 5.13838 128.651 5.0745C128.625 5.00903 128.487 4.98898 128.396 4.94937Z" fill="#EABC25"/>
<path d="M119.728 1.61212C120.743 2.16296 121.839 1.75457 122.889 1.88593C123.233 1.92889 123.754 1.75271 123.767 2.3086C123.777 2.69979 123.405 2.97385 123.035 3.09364C122.518 3.26364 121.958 3.25254 121.447 3.06217C120.674 2.80737 119.849 2.76285 119.053 2.9331C118.008 3.10937 117.256 3.55628 117.422 4.87204C117.597 6.25733 116.869 6.90787 115.507 6.77649C114.204 6.65094 113.75 7.2534 113.858 8.49517C113.95 9.55215 113.589 10.2682 112.389 10.3845C110.651 10.5528 109.711 12.7645 110.721 14.2286C110.904 14.4942 111.129 14.7349 111.286 15.0146C111.617 15.606 111.79 16.2518 111.382 16.8569C110.944 17.5074 110.402 16.8268 109.907 16.8884C109.315 15.487 108.586 16.6793 108.15 16.9256C104.949 18.733 101.813 20.655 98.6444 22.5219C93.2961 25.6735 87.9445 28.8195 82.5896 31.9597C82.237 32.1673 81.9254 32.4455 81.2491 32.9473C84.2599 33.088 86.8308 33.2003 89.4006 33.3342C89.9738 33.3641 90.7138 33.2373 90.9949 33.8352C91.2251 34.3248 90.5594 34.6466 90.2948 35.0169C88.5358 37.4788 86.7121 39.8938 84.9207 42.3325C84.5565 42.8282 84.1959 43.2437 83.498 43.2401C78.4185 43.2141 73.339 43.2089 68.2594 43.19C68.0985 43.1697 67.9408 43.1288 67.79 43.0685C69.7335 40.2045 71.6764 37.3412 73.6185 34.4786C75.8802 31.3855 78.0843 28.2477 80.4149 25.2081C86.1507 17.7277 92.512 10.9116 100.959 6.43431C103.773 4.94307 106.784 4.0017 109.897 3.29311C112.466 2.70855 114.965 1.8197 117.628 1.70416C118.328 1.67381 119.028 1.64313 119.728 1.61212Z" fill="#EEBD26"/>
<path d="M59.39 16.53C58.7262 17.0142 59.021 17.3949 59.4825 17.8269C60.0562 18.3641 60.5769 18.9586 61.3279 19.7458C60.3209 19.5124 59.32 20.2081 59.1132 18.6857C59.0194 17.9944 58.2133 17.883 57.5133 17.8835C45.3524 17.8937 33.1915 17.8964 21.0306 17.8916C20.1812 17.8916 19.361 18.34 18.4928 18.06C18.4927 18.0599 18.4963 18.0534 18.4984 18.0525C18.5727 17.676 18.6406 17.3045 18.0417 17.5519C14.2443 12.4555 10.4469 7.35906 6.43799 1.97873C12.8968 1.60447 18.9503 0.971565 25.0423 1.33897C30.5383 1.67043 35.9798 2.31461 41.2204 4.17038C45.4322 5.67566 49.3653 7.87616 52.8582 10.6815C53.8071 11.4367 54.9745 11.9878 55.7243 13.0092C55.8352 13.1099 55.9461 13.2106 56.057 13.3113L56.0518 13.3058C55.8645 14.3468 56.8309 14.7411 57.2425 15.4459C57.3819 15.6845 57.3235 16.21 57.7715 16.0301C57.9438 15.9609 57.9507 15.4753 58.033 15.1795C58.6058 15.488 59.0772 15.9572 59.39 16.53ZM19.8622 16.8216C19.7725 16.7823 19.6628 16.6924 19.5985 16.7179C19.5338 16.7437 19.5142 16.8842 19.4749 16.9745C19.5644 17.0138 19.6742 17.1041 19.7377 17.0785C19.8029 17.0522 19.8228 16.9125 19.8622 16.8216Z" fill="#3365D8"/>
<path d="M66.0729 82.2231C58.1606 86.8701 47.7048 89.7657 38.2102 83.138C32.9015 79.4322 30.2563 74.0245 29.4472 67.6564C29.3607 66.9757 29.3523 66.249 30.3633 66.4098C31.4406 66.5812 32.9492 65.6944 33.2845 67.7353C33.7597 70.7546 35.0423 73.587 36.995 75.9295C39.5481 78.9967 42.8426 80.6283 46.7981 80.9736C53.3298 81.5439 58.9536 79.0425 64.3397 75.7521C67.8211 73.6253 70.6053 70.6451 73.6338 67.9651C73.8758 68.1405 74.1637 68.2408 74.4617 68.2534C74.7598 68.2661 75.055 68.1906 75.3109 68.0363C77.1247 66.982 78.8277 67.699 80.8227 68.1252C80.0185 68.7325 79.1016 68.7005 78.8293 69.5446C78.4668 70.668 78.0968 71.7889 77.73 72.9109L77.2696 73.0053C77.124 72.6023 76.95 72.2071 76.8399 71.7945C76.7024 71.2793 76.2365 70.8739 76.0462 71.4266C75.8106 72.111 76.5289 72.7161 77.0655 73.2155C74.0144 76.9747 70.0582 79.6169 66.0729 82.2231ZM73.6901 71.1227C74.0667 71.0513 74.4121 70.8642 74.6786 70.5871C74.9451 70.3099 75.1195 69.9565 75.1779 69.5755C75.2393 69.2455 75.0054 68.752 74.7081 68.9547C74.0798 69.3831 73.3113 69.7484 73.0181 70.5264C72.8734 70.9103 73.1965 71.0942 73.6901 71.1227Z" fill="#ECBE28"/>
<path d="M77.7302 72.9109C78.0969 71.7889 78.4669 70.6679 78.8294 69.5445C79.1018 68.7004 80.0187 68.7325 80.8229 68.1252C78.8278 67.699 77.1248 66.982 75.3111 68.0363C75.0552 68.1906 74.76 68.266 74.4619 68.2534C74.1638 68.2407 73.876 68.1405 73.634 67.9651C74.0612 66.849 74.8898 66.4684 76.0481 66.474C81.2938 66.4998 86.5397 66.4788 91.7855 66.4839C92.1469 66.4843 92.6292 66.3258 92.8287 66.7072C93.0562 67.1423 92.6974 67.541 92.4486 67.8773C86.9143 75.3589 81.3692 82.8325 75.8134 90.2981C75.1274 91.2169 74.7584 92.8459 73.561 92.7987C72.5061 92.7571 72.186 91.1384 71.4631 90.274C69.9069 88.4132 68.5744 86.3633 67.0168 84.5039C66.4919 83.8772 67.078 83.6664 67.1101 83.2633C67.5397 83.28 67.9604 83.1373 68.2923 82.8625C70.5778 81.1538 72.5321 79.0825 74.446 76.9941C75.6186 75.7144 77.2186 74.7401 77.7302 72.9109Z" fill="#E9BB27"/>
<path d="M98.3908 53.1046C99.4037 51.442 99.4389 49.6083 99.8316 47.8929C100.394 45.4374 100.353 45.3917 102.902 45.3907C103.335 45.3905 103.768 45.4018 104.2 45.389C105.24 45.3583 105.807 45.7712 105.847 46.902C105.971 50.3802 106.125 53.8572 106.309 57.333C106.378 58.6201 105.459 58.219 104.875 58.2003C104.156 58.1773 103.052 58.7624 103.086 57.1758C103.167 54.2307 103.086 51.2834 102.846 48.3471C101.826 50.1099 101.594 52.0544 101.173 53.9363C100.648 56.2833 100.556 56.3314 98.1872 56.3695C96.8053 56.3917 96.2794 55.7511 96.0368 54.4973C95.6392 52.4426 95.1306 50.4096 94.6688 48.3675L94.0566 48.3904C94.0566 51.2101 93.962 54.0342 94.0909 56.848C94.1729 58.6388 93.0416 58.1378 92.0964 58.2438C90.9452 58.373 90.7779 57.8424 90.8321 56.8369C91.0019 53.6874 91.1209 50.5354 91.1891 47.3807C91.222 45.9577 91.7705 45.3341 93.252 45.3689C97.0281 45.4578 96.6046 45.0404 97.3988 48.7414C97.7037 50.1623 98.0422 51.5759 98.3908 53.1046Z" fill="#212121"/>
<path d="M61.3787 52.2999C62.3876 52.925 64.0694 56.596 63.8775 57.7591C63.8608 57.8606 63.8535 58.0252 63.796 58.0492C62.9205 58.4147 61.9985 58.1398 61.1009 58.2301C60.4449 58.2961 60.3091 57.8729 60.2035 57.3431C60.0239 56.4413 59.8111 55.5443 59.564 54.6588C59.4072 54.0969 59.2698 53.4996 58.4861 53.4288C57.3775 53.3288 56.404 53.2932 56.6882 54.9096C56.7715 55.3834 56.629 55.8976 56.7142 56.3707C57.0124 58.0263 56.2594 58.3333 54.7638 58.2799C53.5686 58.2372 53.2035 57.9734 53.2372 56.7328C53.3288 53.3694 53.2989 50.0014 53.2491 46.6362C53.2348 45.6714 53.487 45.2555 54.5063 45.289C56.3388 45.3492 58.1806 45.2165 60.0073 45.3366C62.1603 45.4781 63.1698 46.3672 63.4931 48.0928C63.8691 50.0994 63.2705 51.2902 61.3787 52.2999ZM57.9985 50.842C59.2242 50.9484 60.0466 50.7228 60.0147 49.2428C59.9813 47.6982 58.9422 47.816 57.9181 47.6917C56.3353 47.4997 56.77 48.6136 56.6854 49.4486C56.5781 50.508 56.8186 51.1616 57.9985 50.842Z" fill="#212121"/>
<path d="M72.8636 51.8457C72.8658 50.5944 72.8344 49.3421 72.8736 48.092C72.9247 46.4632 73.7255 45.493 75.3097 45.3929C77.2541 45.2773 79.2044 45.308 81.1442 45.4849C82.16 45.5736 82.016 46.1791 81.9737 46.8368C81.9301 47.5142 81.9393 48.1398 80.9405 48.0752C79.8091 48.002 78.669 48.0762 77.5332 48.0574C76.5654 48.0414 76.2561 48.5058 76.1921 49.4555C76.1122 50.6392 76.8325 50.4795 77.5343 50.4772C78.2917 50.4748 79.0497 50.4928 79.8065 50.471C80.5897 50.4484 81.2253 50.3564 81.2286 51.5755C81.2319 52.7952 80.6824 52.8853 79.763 52.8215C79.063 52.7731 78.3569 52.8052 77.6537 52.8145C76.9402 52.824 76.123 52.5522 76.1888 53.8549C76.243 54.9295 76.3647 55.6783 77.6821 55.5916C78.5979 55.5313 79.5324 55.6728 80.4378 55.558C81.7301 55.3943 81.9824 56.0178 82.0172 57.1357C82.0424 57.9461 81.7942 58.1628 81.0386 58.166C79.3085 58.1733 77.5777 58.3153 75.8491 58.2856C73.7587 58.2497 72.9015 57.3371 72.865 55.2732C72.8449 54.1311 72.8614 52.9882 72.8636 51.8457Z" fill="#212121"/>
<path d="M7.26351 55.4997C7.91942 52.5959 8.58187 49.6936 9.22794 46.7877C9.47889 45.6589 11.9153 44.7434 12.7807 45.4771C13.1605 45.7992 12.905 46.2023 12.815 46.5306C11.8701 49.9766 10.8708 53.4075 9.95119 56.8601C9.69945 57.8053 9.23056 58.1923 8.26461 58.2391C4.62494 58.4156 4.63348 58.4366 3.68566 54.9057C2.94119 52.1324 2.22262 49.3505 1.39277 46.6028C1.11316 45.677 1.15624 45.3766 2.21253 45.3661C4.5349 45.3428 4.54443 45.2888 5.08855 47.5937C5.70614 50.2097 6.3034 52.8307 6.9095 55.4495L7.26351 55.4997Z" fill="#212121"/>
<path d="M37.4155 53.2196C37.4155 52.5125 37.4155 51.8053 37.4155 51.0981C37.4154 48.3141 37.4184 48.2488 34.6219 48.122C33.4437 48.0686 33.7102 47.3608 33.6737 46.6958C33.6317 45.9335 33.6293 45.343 34.7238 45.3685C37.6433 45.4367 40.564 45.437 43.4859 45.3694C44.726 45.3389 44.5244 46.091 44.5722 46.8483C44.6256 47.6935 44.4698 48.1079 43.4571 48.1181C40.849 48.1444 40.8496 48.2024 40.8497 50.7677C40.8498 52.8893 40.7725 55.0146 40.8751 57.1311C40.9524 58.7253 39.8656 58.2021 39.1434 58.1959C38.4232 58.1898 37.2856 58.7316 37.3971 57.135C37.4878 55.8359 37.4155 54.5252 37.4155 53.2196Z" fill="#1E1E1E"/>
<path d="M63.0346 66.3951C59.8837 69.1145 56.5474 71.1412 52.5108 71.6655C48.6842 72.1625 45.6314 70.8055 43.2867 67.7744C43.0427 67.459 42.5797 67.0636 42.8981 66.6441C43.2011 66.2451 43.6617 66.483 44.066 66.7023C46.8727 68.225 49.7744 68.2692 52.6563 67.0265C54.4276 66.2627 56.2417 66.4135 58.0638 66.3981C59.7206 66.384 61.3776 66.3951 63.0346 66.3951Z" fill="#ECBE2D"/>
<path d="M133.391 45.3951C134.799 45.3974 136.211 45.473 137.612 45.375C138.878 45.2864 138.641 46.0945 138.685 46.8374C138.733 47.6499 138.639 48.1138 137.597 48.1209C134.995 48.1384 134.996 48.2003 134.996 50.7517C134.996 52.8748 134.92 55.0015 135.021 57.1197C135.096 58.7021 134.024 58.1886 133.287 58.2033C132.523 58.2184 131.5 58.6295 131.575 57.0833C131.682 54.9111 131.603 52.7297 131.603 50.5522C131.603 48.1306 131.601 48.052 129.237 48.1221C128.017 48.1583 127.851 47.6853 127.841 46.6191C127.831 45.5527 128.223 45.3304 129.17 45.3755C130.574 45.4425 131.984 45.3929 133.391 45.3951Z" fill="#1E1E1E"/>
<path d="M73.6187 34.4786C71.6762 37.3415 69.7334 40.2048 67.7903 43.0685C67.2849 43.217 66.7491 43.2261 66.239 43.0949C66.0461 43.0952 65.8537 43.0956 65.6617 43.096C64.8467 43.2288 64.0157 43.2288 63.2006 43.096L63.1868 42.7176C65.3466 38.959 67.4607 35.1764 68.7134 30.9889C68.9248 30.2823 69.5305 29.8797 69.818 29.2497C71.0855 30.9925 72.3523 32.7355 73.6187 34.4786Z" fill="#353ED5"/>
<path d="M21.624 51.6975C21.6239 50.0165 21.7025 48.3306 21.5973 46.6563C21.5224 45.4655 22.0781 45.2336 23.0219 45.4036C23.8066 45.5449 25.07 44.7486 25.0308 46.5622C24.9545 50.0851 24.9662 53.6117 25.0262 57.1353C25.0555 58.8515 23.8434 58.0984 23.1071 58.2025C22.3144 58.3147 21.4965 58.43 21.5933 57.0636C21.7194 55.2832 21.6241 53.4869 21.624 51.6975Z" fill="#1E1E1E"/>
<path d="M119.108 51.95C119.108 53.6914 119.039 55.4363 119.129 57.1729C119.205 58.6365 118.193 58.2436 117.505 58.1855C116.816 58.1274 115.645 58.8461 115.662 57.2229C115.7 53.6318 115.686 50.0399 115.669 46.4485C115.661 44.6048 117.027 45.6025 117.784 45.4197C118.634 45.2144 119.197 45.4238 119.134 46.5642C119.036 48.3545 119.108 50.1542 119.108 51.95Z" fill="#191919"/>
<path d="M63.1866 42.7176L63.2004 43.096C62.7801 43.1649 62.3564 43.2106 61.9311 43.2328C54.0059 43.2403 46.0806 43.2425 38.1553 43.2393C37.3951 43.2396 36.6073 43.3404 36.2788 42.3917C37.1048 42.6439 37.9666 42.7569 38.8293 42.7261C46.9484 42.7112 55.0675 42.7083 63.1866 42.7176Z" fill="#4056D2"/>
<path d="M77.7301 72.9109C77.2185 74.7401 75.6185 75.7144 74.4458 76.9941C72.532 79.0825 70.5777 81.1537 68.2922 82.8625C67.9603 83.1373 67.5396 83.28 67.11 83.2633C66.8744 82.8057 66.7274 82.2586 66.073 82.2231C70.0583 79.6169 74.0145 76.9747 77.0644 73.2149C77.1152 73.204 77.1618 73.1783 77.1983 73.141C77.2348 73.1038 77.2596 73.0565 77.2697 73.0052L77.7301 72.9109Z" fill="#FBF8EC"/>
<path d="M96.6142 43.2553C95.9671 43.1188 94.8817 43.643 94.572 43.019C94.2042 42.2777 95.3378 41.78 95.6961 41.0944C95.9169 40.7207 96.2044 40.3912 96.544 40.1223C97.0061 39.7235 97.0995 38.7092 97.8551 38.9268C98.3756 39.0767 98.3231 39.9473 98.5405 40.4899C98.5801 40.5888 98.5824 40.7023 98.6123 40.806C99.3297 43.293 99.3299 43.2929 96.6142 43.2553Z" fill="#ECBE2D"/>
<path d="M135.63 1.67882C135.52 2.15875 135.353 2.84292 134.87 2.78462C133.496 2.61867 132.035 3.03883 130.811 2.66884C129.814 2.36742 128.802 2.48797 127.907 2.1645C126.357 1.60459 124.798 1.52269 123.202 1.5234C125.704 1.16173 128.188 1.03797 130.686 1.68084C131.73 1.96676 132.833 1.95693 133.873 1.65245C134.408 1.49055 135.041 1.65955 135.63 1.67882Z" fill="#EEBD26"/>
<path d="M57.8749 61.1046C58.1556 61.6735 57.9852 62.2129 57.9602 62.7408C57.9586 62.9571 57.8956 63.1683 57.7788 63.3498C57.5056 63.7092 57.0092 63.7671 56.8236 63.4235C56.1419 62.1615 55.8681 64.3631 55.2142 63.5635C54.6646 62.8915 54.5453 61.9946 54.8371 61.4563C55.0585 61.0477 56.457 60.6717 56.6995 61.1896C57.3006 62.4726 57.4137 61.1263 57.8749 61.1046Z" fill="#A0A0A0"/>
<path d="M100.558 62.2588C100.807 64.3118 99.2212 62.5135 98.8615 63.2269C98.7399 63.1246 98.6149 62.9301 98.4973 62.9346C97.4666 62.9736 97.1501 62.4933 97.5834 61.5061C97.6125 61.4041 97.6547 61.3063 97.7091 61.2152C97.9053 60.9775 98.3096 60.8906 98.418 61.0604C98.9138 61.8368 99.246 61.2083 99.7511 61.0856C100.844 60.82 100.451 61.8335 100.558 62.2588Z" fill="#A3A3A3"/>
<path d="M89.4081 62.3841C89.4546 63.3341 89.3192 64.1212 88.0617 63.0876C86.0398 64.307 87.0532 62.3361 86.9963 61.9164C86.8763 61.0298 87.2617 60.5874 88.0649 61.4621C88.1642 61.5702 88.139 61.8653 88.5007 61.6992C89.3787 61.296 89.3957 61.3334 89.4081 62.3841Z" fill="#A3A3A3"/>
<path d="M103.478 60.9735C104.397 60.9417 104.702 61.5367 104.706 62.3063C104.71 63.0766 104.412 63.6513 103.49 63.6555C102.57 63.6597 102.27 63.1097 102.272 62.3211C102.274 61.542 102.553 60.9498 103.478 60.9735Z" fill="#A3A3A3"/>
<path d="M93.418 62.4741C93.4417 63.1893 93.0488 63.6021 92.1691 63.6577C91.096 63.7256 91.1103 63.0648 91.112 62.3054C91.1138 61.5388 91.1227 60.8851 92.1892 60.9638C93.0778 61.0294 93.4275 61.49 93.418 62.4741Z" fill="#A0A0A0"/>
<path d="M75.5427 62.281C75.5897 63.1107 75.2913 63.6492 74.3808 63.6472C73.4583 63.6451 73.2117 63.0708 73.2246 62.2624C73.2365 61.5181 73.4925 61.007 74.3213 60.9793C75.2183 60.9493 75.574 61.4328 75.5427 62.281Z" fill="#A0A0A0"/>
<path d="M31.672 62.3003C32.0002 63.3359 31.576 63.6118 30.7599 63.6471C30.0125 63.6793 29.6077 63.4146 29.7342 62.6331C29.837 61.997 29.2784 61.0141 30.5989 60.9671C31.7314 60.9268 31.8097 61.6015 31.672 62.3003Z" fill="#A0A0A0"/>
<path d="M108.707 62.3739C108.583 62.7453 108.681 63.7391 108.35 63.4836C107.649 62.9426 106.856 63.9606 106.52 63.2674C106.378 62.9426 106.309 62.5901 106.318 62.2354C106.328 61.8806 106.415 61.5322 106.573 61.2153C106.745 60.8751 107.122 61.039 107.362 61.3321C107.512 61.5149 107.571 61.844 107.917 61.762C108.713 61.5733 108.712 61.5691 108.707 62.3739Z" fill="#A0A0A0"/>
<path d="M109.639 17.5619C110.385 18.7112 110.514 20.022 110.571 21.3374C110.578 21.4339 110.563 21.5307 110.53 21.6213C110.496 21.7118 110.443 21.7941 110.375 21.8626C110.307 21.9311 110.226 21.9842 110.136 22.0184C110.046 22.0526 109.949 22.0672 109.853 22.0611C109.312 22.0596 109.439 21.5757 109.301 21.2477C109.061 20.6778 109.897 19.9956 109.087 19.526C109.193 18.8492 109.229 18.1522 109.639 17.5619Z" fill="#EEBD26"/>
<path d="M50.4723 62.487C50.6221 63.2331 50.5668 63.4232 49.5608 63.4728C48.3171 63.5342 48.5487 62.951 48.5386 62.2904C48.5289 61.6504 48.388 60.9579 49.432 60.9578C50.5788 60.9577 50.6281 61.6173 50.4723 62.487Z" fill="#A0A0A0"/>
<path d="M61.9838 63.5715C61.2135 62.9394 60.5316 63.1489 59.6897 63.8137C59.8877 62.5586 59.7495 61.1538 60.9 61.1174C62.0471 61.0811 61.6849 62.5914 61.9838 63.5715Z" fill="#A0A0A0"/>
<path d="M25.7481 63.5227C25.0582 63.6688 24.5216 62.5869 23.8722 63.5091C23.6732 63.7916 23.3491 63.4021 23.4585 63.0024C23.5573 62.6413 23.6505 62.2781 23.7681 61.9231C23.8979 61.5315 23.9236 61.0473 24.504 61.0131C25.1684 60.974 25.2701 61.5052 25.4061 61.9498C25.5566 62.4416 25.629 62.9574 25.7481 63.5227Z" fill="#A0A0A0"/>
<path d="M44.6956 62.3579C44.7081 62.0355 44.7698 61.7169 44.8785 61.4133C44.9445 61.2938 45.0344 61.1893 45.1426 61.1064C45.2508 61.0236 45.3749 60.9643 45.5071 60.9322C45.6392 60.9 45.7766 60.8958 45.9104 60.9198C46.0443 60.9438 46.1717 60.9955 46.2847 61.0715C46.9166 61.4938 46.2173 61.5419 45.9691 61.6895C46.78 61.9508 45.5346 62.8079 46.375 63.0943C46.4258 63.1097 46.4699 63.142 46.5 63.1859C46.5302 63.2298 46.5446 63.2827 46.5409 63.336C46.5371 63.3892 46.5155 63.4396 46.4795 63.4789C46.4436 63.5181 46.3954 63.5439 46.343 63.552C45.833 63.6605 45.2416 63.8276 44.8758 63.2904C44.713 63.0514 44.7498 62.6749 44.6956 62.3579Z" fill="#A3A3A3"/>
<path d="M79.5735 63.5026C79.8033 62.8821 80.2232 63.043 80.511 62.8799C80.1949 62.3675 79.2623 62.2059 79.6812 61.3639C79.9173 60.8892 80.3967 60.9675 80.8239 60.9837C80.9309 60.9846 81.0362 61.0116 81.1305 61.0626C81.39 61.2207 81.2994 61.382 81.1251 61.5548C80.3352 62.3377 82.1114 62.2373 81.6053 63.0367C81.0496 63.9144 80.3993 63.6448 79.5735 63.5026Z" fill="#A3A3A3"/>
<path d="M85.4704 63.5572C84.3372 63.559 83.409 64.0325 83.3493 62.7939C83.3179 62.1419 82.9099 61.2171 84.0752 60.9811C85.7335 60.6451 84.4016 62.002 84.8505 62.3461C83.8483 62.9345 84.9733 63.0342 85.4704 63.5572Z" fill="#A3A3A3"/>
<path d="M35.5017 61.1261C34.566 61.9665 34.4981 62.6762 35.4441 63.4742C34.8148 63.655 34.172 63.8619 33.7906 63.3593C33.3579 62.7893 33.4307 61.9646 33.7265 61.3593C34.0385 60.721 34.7341 60.9721 35.5017 61.1261Z" fill="#A3A3A3"/>
<path d="M63.3733 60.6412C64.2899 61.6463 64.9193 61.4805 65.6034 60.8686C65.6034 61.2512 65.6667 61.4601 65.5933 61.537C65.0447 62.112 65.3472 63.5588 64.5708 63.435C63.9408 63.3345 63.7916 62.0057 63.3733 60.6412Z" fill="#A3A3A3"/>
<path d="M71.3868 61.1135C71.4075 61.1943 71.4403 61.2777 71.4288 61.2844C70.5577 61.7943 71.316 63.4758 70.3713 63.4256C69.5973 63.3844 70.4404 61.7197 69.2905 61.1975C69.961 60.9379 70.698 60.9083 71.3868 61.1135Z" fill="#A0A0A0"/>
<path d="M40.907 61.137C41.5137 60.9469 42.1598 60.9229 42.7788 61.0674C42.8272 61.1748 42.9248 61.2957 42.8972 61.3438C42.1193 62.6983 41.8624 62.6818 40.907 61.137Z" fill="#A3A3A3"/>
<path d="M114.248 61.251C114.796 60.6741 115.143 62.0586 115.765 61.2149C116.047 60.8316 116.211 61.3977 116.141 61.694C116.019 62.2083 115.84 62.709 115.681 63.2142C115.664 63.3191 115.607 63.4134 115.522 63.4768C115.437 63.5403 115.331 63.568 115.226 63.554C114.956 63.5269 114.923 63.308 114.858 63.1059C114.665 62.5037 114.463 61.904 114.248 61.251Z" fill="#A0A0A0"/>
<path d="M112.541 61.1294C111.561 61.8063 111.64 62.8749 110.941 63.6217C110.683 63.292 110.532 62.8912 110.506 62.4726C110.481 62.054 110.583 61.6375 110.799 61.2789C111.119 60.7029 111.811 60.9965 112.541 61.1294Z" fill="#A0A0A0"/>
<path d="M38.2324 63.7905C37.6123 62.8212 38.1769 61.7767 37.145 61.293C37.8586 60.8465 38.4195 61.0384 39.2791 61.0159C38.3995 61.8062 38.7075 62.7615 38.2324 63.7905Z" fill="#A0A0A0"/>
<path d="M58.033 15.1794C57.9508 15.4753 57.9438 15.9609 57.7716 16.0301C57.3235 16.2099 57.3819 15.6845 57.2426 15.4459C56.8309 14.741 55.8645 14.3468 56.0519 13.3058C56.823 13.8003 57.495 14.4358 58.033 15.1794Z" fill="#335DD8"/>
<path d="M34.6289 40.1002C35.4391 40.1645 35.615 40.7007 35.5802 41.3935C35.1493 41.0601 34.8198 40.6121 34.6289 40.1002Z" fill="#4056D2"/>
<path d="M18.0417 17.5519C18.6406 17.3045 18.5727 17.676 18.4984 18.0525C18.3795 18.0281 18.2714 17.9666 18.1894 17.8767C18.1074 17.7868 18.0557 17.6731 18.0417 17.5519Z" fill="#335DD8"/>
<path d="M69.8019 29.2676C69.4337 29.2256 69.393 28.9519 69.3772 28.6607C69.4991 28.7092 69.6043 28.7925 69.6797 28.9003C69.7552 29.0081 69.7977 29.1358 69.8019 29.2676Z" fill="#353ED5"/>
<path d="M35.5928 41.4159C35.691 41.5422 35.7893 41.6684 35.8876 41.7947C35.7893 41.6685 35.691 41.5422 35.5928 41.4159Z" fill="#4056D2"/>
<path d="M65.6616 43.0961C65.8538 43.0957 66.0463 43.0953 66.2389 43.0949C66.2015 43.1339 66.1567 43.165 66.1072 43.1862C66.0576 43.2074 66.0043 43.2184 65.9505 43.2185C65.8966 43.2186 65.8433 43.2078 65.7937 43.1868C65.7441 43.1657 65.6992 43.1349 65.6616 43.0961Z" fill="#4056D2"/>
<path d="M56.057 13.3113C55.9461 13.2106 55.8352 13.1099 55.7244 13.0092C55.8353 13.1099 55.9462 13.2107 56.057 13.3113Z" fill="#335DD8"/>
<path d="M112.653 13.0526C112.869 13.0612 113.123 13.0899 113.071 13.3699C113.045 13.4656 112.999 13.5547 112.936 13.6311C112.873 13.7076 112.795 13.7697 112.707 13.8134C112.492 13.9028 112.301 13.7669 112.304 13.4984C112.298 13.4461 112.301 13.393 112.316 13.3422C112.33 13.2914 112.354 13.2439 112.386 13.2024C112.418 13.161 112.459 13.1264 112.504 13.1007C112.55 13.075 112.601 13.0587 112.653 13.0526Z" fill="#EEBD26"/>
<path d="M120.363 13.4165C120.263 13.5766 120.209 13.7728 120.112 13.7982C119.854 13.8651 119.753 13.6563 119.781 13.4454C119.797 13.3807 119.829 13.3211 119.874 13.272C119.919 13.2229 119.975 13.1859 120.038 13.1642C120.126 13.1522 120.237 13.3119 120.363 13.4165Z" fill="#EEBD26"/>
<path d="M121.698 12.2738C121.569 12.1208 121.427 12.0272 121.415 11.9193C121.402 11.7939 121.471 11.5735 121.56 11.5394C121.798 11.4478 121.936 11.6246 121.929 11.8471C121.925 11.9673 121.806 12.084 121.698 12.2738Z" fill="#EEBD26"/>
<path d="M126.886 6.19537C126.997 6.38106 127.116 6.4937 127.123 6.61259C127.135 6.83423 127.006 7.0185 126.764 6.94044C126.677 6.91227 126.601 6.68982 126.611 6.56316C126.619 6.45518 126.758 6.35743 126.886 6.19537Z" fill="#EEBD26"/>
<path d="M113.544 20.2917C113.441 20.4426 113.382 20.6318 113.282 20.6572C113.009 20.7263 112.933 20.4986 112.961 20.2941C112.979 20.23 113.012 20.1714 113.058 20.1237C113.104 20.076 113.161 20.0409 113.225 20.0216C113.318 20.0168 113.421 20.1798 113.544 20.2917Z" fill="#EEBD26"/>
<path d="M115.168 18.6583C115.066 18.8093 115.006 18.9984 114.906 19.0239C114.633 19.0929 114.557 18.8652 114.585 18.6607C114.603 18.5966 114.636 18.538 114.682 18.4904C114.728 18.4427 114.786 18.4076 114.849 18.3883C114.943 18.3834 115.045 18.5465 115.168 18.6583Z" fill="#EEBD26"/>
<path d="M128.397 4.94919C128.486 4.98896 128.625 5.00901 128.651 5.07448C128.677 5.13837 128.587 5.24865 128.548 5.33856C128.458 5.29901 128.319 5.27935 128.293 5.21428C128.268 5.1498 128.357 5.03953 128.397 4.94919Z" fill="#EEBD26"/>
<path d="M19.8624 16.8221C19.8228 16.9125 19.8029 17.0522 19.7377 17.0785C19.6741 17.1041 19.5643 17.0138 19.4749 16.9745C19.5142 16.8842 19.5338 16.7437 19.5985 16.7179C19.6627 16.6924 19.7724 16.7823 19.8624 16.8221Z" fill="#335DD8"/>
<path d="M73.6901 71.1227C73.1966 71.0942 72.8734 70.9103 73.0182 70.5263C73.3113 69.7484 74.0799 69.3831 74.7082 68.9546C75.0054 68.7519 75.2394 69.2455 75.1779 69.5754C75.1196 69.9565 74.9451 70.3099 74.6786 70.587C74.4122 70.8641 74.0668 71.0513 73.6901 71.1227Z" fill="#EABC25"/>
<path d="M77.2697 73.0053C77.2596 73.0566 77.2348 73.1038 77.1983 73.141C77.1618 73.1783 77.1153 73.204 77.0644 73.2149C76.529 72.7161 75.8107 72.111 76.0463 71.4266C76.2366 70.8739 76.7025 71.2793 76.84 71.7945C76.9501 72.2071 77.1241 72.6023 77.2697 73.0053Z" fill="#E9BB27"/>
<path d="M57.9985 50.842C56.8186 51.1616 56.578 50.508 56.6854 49.4486C56.77 48.6135 56.3352 47.4997 57.9181 47.6917C58.9422 47.816 59.9813 47.6982 60.0146 49.2428C60.0466 50.7228 59.2241 50.9484 57.9985 50.842Z" fill="#FBF8EC"/>
</svg>
