<svg width="25" height="24" viewBox="0 0 25 24" fill="none" xmlns="http://www.w3.org/2000/svg">
<g opacity="0.22">
<path d="M20.5 18.51H11.43C11.4145 18.51 11.3973 18.5042 11.3816 18.4884C11.3658 18.4727 11.36 18.4555 11.36 18.44C11.36 18.4245 11.3658 18.4073 11.3816 18.3916C11.3973 18.3758 11.4145 18.37 11.43 18.37H20.5C20.5155 18.37 20.5327 18.3758 20.5484 18.3916C20.5642 18.4073 20.57 18.4245 20.57 18.44C20.57 18.4635 20.5621 18.4786 20.5506 18.4899C20.5383 18.5021 20.5216 18.51 20.5 18.51Z" fill="#70737A" stroke="#70737A" stroke-width="1.5"/>
<path d="M20.5 12.47H11.43C11.2561 12.47 11.11 12.3238 11.11 12.15C11.11 11.9761 11.2561 11.83 11.43 11.83H20.5C20.6738 11.83 20.82 11.9761 20.82 12.15C20.82 12.3238 20.6738 12.47 20.5 12.47Z" fill="#70737A" stroke="#70737A"/>
<path d="M20.5 6.67H11.43C10.98 6.67 10.61 6.3 10.61 5.85C10.61 5.4 10.98 5.03 11.43 5.03H20.5C20.95 5.03 21.32 5.4 21.32 5.85C21.32 6.3 20.95 6.67 20.5 6.67Z" fill="#70737A"/>
<path d="M5.41005 8.03001C5.19005 8.03001 4.98005 7.94001 4.83005 7.79001L3.92005 6.88001C3.60005 6.56001 3.60005 6.04001 3.92005 5.72001C4.24005 5.40001 4.76005 5.40001 5.08005 5.72001L5.41005 6.05001L7.55005 3.91001C7.87005 3.59001 8.39005 3.59001 8.71005 3.91001C9.03005 4.23001 9.03005 4.75001 8.71005 5.07001L5.99005 7.79001C5.83005 7.94001 5.63005 8.03001 5.41005 8.03001Z" fill="#70737A"/>
<path d="M5.41005 14.33C5.20005 14.33 4.99005 14.25 4.83005 14.09L3.92005 13.18C3.60005 12.86 3.60005 12.34 3.92005 12.02C4.24005 11.7 4.76005 11.7 5.08005 12.02L5.41005 12.35L7.55005 10.21C7.87005 9.89 8.39005 9.89 8.71005 10.21C9.03005 10.53 9.03005 11.05 8.71005 11.37L5.99005 14.09C5.83005 14.25 5.62005 14.33 5.41005 14.33Z" fill="#70737A"/>
<path d="M5.41005 20.33C5.20005 20.33 4.99005 20.25 4.83005 20.09L3.92005 19.18C3.60005 18.86 3.60005 18.34 3.92005 18.02C4.24005 17.7 4.76005 17.7 5.08005 18.02L5.41005 18.35L7.55005 16.21C7.87005 15.89 8.39005 15.89 8.71005 16.21C9.03005 16.53 9.03005 17.05 8.71005 17.37L5.99005 20.09C5.83005 20.25 5.62005 20.33 5.41005 20.33Z" fill="#70737A"/>
</g>
</svg>
